<mxfile host="app.diagrams.net" modified="2021-09-20T06:53:35.182Z" agent="5.0 (Macintosh; Intel Mac OS X 10_15_7) AppleWebKit/537.36 (KHTML, like Gecko) Chrome/93.0.4577.82 Safari/537.36" etag="ykQpPKWNPj9LwMKUWVrf" version="15.2.9" type="github">
  <diagram id="72mJ2QXTGeF_lFiz-RFx" name="Page-1">
    <mxGraphModel dx="873" dy="623" grid="1" gridSize="10" guides="1" tooltips="1" connect="1" arrows="1" fold="1" page="1" pageScale="1" pageWidth="1169" pageHeight="1654" math="0" shadow="0">
      <root>
        <mxCell id="0" />
        <mxCell id="1" parent="0" />
        <mxCell id="FWyLwm6ZmMoBYNJKN1uE-1" value="开始" style="rounded=1;whiteSpace=wrap;html=1;" vertex="1" parent="1">
          <mxGeometry x="360" y="20" width="70" height="30" as="geometry" />
        </mxCell>
        <mxCell id="FWyLwm6ZmMoBYNJKN1uE-2" value="输入头节点的指针，&lt;br&gt;和要添加的数据x" style="shape=parallelogram;perimeter=parallelogramPerimeter;whiteSpace=wrap;html=1;fixedSize=1;" vertex="1" parent="1">
          <mxGeometry x="322.5" y="80" width="145" height="40" as="geometry" />
        </mxCell>
        <mxCell id="FWyLwm6ZmMoBYNJKN1uE-3" value="QNode *p;&lt;br&gt;p = (QNode *)Malloy (sizeof(QNode));&lt;br&gt;p-&amp;gt;data = x;&lt;br&gt;p-&amp;gt;next = NULL;" style="rounded=0;whiteSpace=wrap;html=1;" vertex="1" parent="1">
          <mxGeometry x="285" y="140" width="220" height="60" as="geometry" />
        </mxCell>
        <mxCell id="FWyLwm6ZmMoBYNJKN1uE-5" value="lqu-&amp;gt;rear ==NULL" style="rhombus;whiteSpace=wrap;html=1;" vertex="1" parent="1">
          <mxGeometry x="336.25" y="230" width="117.5" height="60" as="geometry" />
        </mxCell>
        <mxCell id="FWyLwm6ZmMoBYNJKN1uE-6" value="lqu-&amp;gt;front = p;&lt;br&gt;lqu-&amp;gt;rear = lqu-&amp;gt;front;" style="rounded=0;whiteSpace=wrap;html=1;" vertex="1" parent="1">
          <mxGeometry x="500" y="310" width="120" height="40" as="geometry" />
        </mxCell>
        <mxCell id="FWyLwm6ZmMoBYNJKN1uE-7" value="lqu-&amp;gt;rear-&amp;gt;next = p;&lt;br&gt;lqu-&amp;gt;rear = p;" style="rounded=0;whiteSpace=wrap;html=1;" vertex="1" parent="1">
          <mxGeometry x="335" y="320" width="120" height="40" as="geometry" />
        </mxCell>
        <mxCell id="FWyLwm6ZmMoBYNJKN1uE-13" value="" style="edgeStyle=orthogonalEdgeStyle;rounded=0;orthogonalLoop=1;jettySize=auto;html=1;" edge="1" parent="1" source="FWyLwm6ZmMoBYNJKN1uE-8" target="FWyLwm6ZmMoBYNJKN1uE-9">
          <mxGeometry relative="1" as="geometry" />
        </mxCell>
        <mxCell id="FWyLwm6ZmMoBYNJKN1uE-8" value="return lqu;" style="rounded=0;whiteSpace=wrap;html=1;" vertex="1" parent="1">
          <mxGeometry x="333.75" y="390" width="120" height="30" as="geometry" />
        </mxCell>
        <mxCell id="FWyLwm6ZmMoBYNJKN1uE-9" value="结束" style="rounded=1;whiteSpace=wrap;html=1;" vertex="1" parent="1">
          <mxGeometry x="355" y="460" width="77.5" height="30" as="geometry" />
        </mxCell>
        <mxCell id="FWyLwm6ZmMoBYNJKN1uE-10" value="" style="endArrow=classic;html=1;exitX=0.5;exitY=1;exitDx=0;exitDy=0;entryX=0.5;entryY=0;entryDx=0;entryDy=0;" edge="1" parent="1" source="FWyLwm6ZmMoBYNJKN1uE-1" target="FWyLwm6ZmMoBYNJKN1uE-2">
          <mxGeometry width="50" height="50" relative="1" as="geometry">
            <mxPoint x="410" y="280" as="sourcePoint" />
            <mxPoint x="460" y="230" as="targetPoint" />
          </mxGeometry>
        </mxCell>
        <mxCell id="FWyLwm6ZmMoBYNJKN1uE-14" value="" style="endArrow=classic;html=1;exitX=1;exitY=0.5;exitDx=0;exitDy=0;entryX=0.5;entryY=0;entryDx=0;entryDy=0;" edge="1" parent="1" source="FWyLwm6ZmMoBYNJKN1uE-5" target="FWyLwm6ZmMoBYNJKN1uE-6">
          <mxGeometry width="50" height="50" relative="1" as="geometry">
            <mxPoint x="410" y="280" as="sourcePoint" />
            <mxPoint x="460" y="230" as="targetPoint" />
            <Array as="points">
              <mxPoint x="560" y="260" />
            </Array>
          </mxGeometry>
        </mxCell>
        <mxCell id="FWyLwm6ZmMoBYNJKN1uE-15" value="" style="endArrow=classic;html=1;exitX=0.5;exitY=1;exitDx=0;exitDy=0;" edge="1" parent="1" source="FWyLwm6ZmMoBYNJKN1uE-6">
          <mxGeometry width="50" height="50" relative="1" as="geometry">
            <mxPoint x="410" y="380" as="sourcePoint" />
            <mxPoint x="450" y="400" as="targetPoint" />
            <Array as="points">
              <mxPoint x="560" y="400" />
            </Array>
          </mxGeometry>
        </mxCell>
        <mxCell id="FWyLwm6ZmMoBYNJKN1uE-16" value="Yes" style="text;html=1;align=center;verticalAlign=middle;resizable=0;points=[];autosize=1;strokeColor=none;fillColor=none;" vertex="1" parent="1">
          <mxGeometry x="450" y="240" width="40" height="20" as="geometry" />
        </mxCell>
        <mxCell id="FWyLwm6ZmMoBYNJKN1uE-17" value="No" style="text;html=1;align=center;verticalAlign=middle;resizable=0;points=[];autosize=1;strokeColor=none;fillColor=none;" vertex="1" parent="1">
          <mxGeometry x="400" y="290" width="30" height="20" as="geometry" />
        </mxCell>
        <mxCell id="FWyLwm6ZmMoBYNJKN1uE-18" value="" style="endArrow=classic;html=1;exitX=0.5;exitY=1;exitDx=0;exitDy=0;entryX=0.5;entryY=0;entryDx=0;entryDy=0;" edge="1" parent="1" source="FWyLwm6ZmMoBYNJKN1uE-2" target="FWyLwm6ZmMoBYNJKN1uE-3">
          <mxGeometry width="50" height="50" relative="1" as="geometry">
            <mxPoint x="410" y="190" as="sourcePoint" />
            <mxPoint x="460" y="140" as="targetPoint" />
          </mxGeometry>
        </mxCell>
        <mxCell id="FWyLwm6ZmMoBYNJKN1uE-19" value="" style="endArrow=classic;html=1;exitX=0.5;exitY=1;exitDx=0;exitDy=0;entryX=0.5;entryY=0;entryDx=0;entryDy=0;" edge="1" parent="1" source="FWyLwm6ZmMoBYNJKN1uE-3" target="FWyLwm6ZmMoBYNJKN1uE-5">
          <mxGeometry width="50" height="50" relative="1" as="geometry">
            <mxPoint x="410" y="190" as="sourcePoint" />
            <mxPoint x="460" y="140" as="targetPoint" />
          </mxGeometry>
        </mxCell>
        <mxCell id="FWyLwm6ZmMoBYNJKN1uE-20" value="" style="endArrow=classic;html=1;exitX=0.5;exitY=1;exitDx=0;exitDy=0;entryX=0.5;entryY=0;entryDx=0;entryDy=0;" edge="1" parent="1" source="FWyLwm6ZmMoBYNJKN1uE-5" target="FWyLwm6ZmMoBYNJKN1uE-7">
          <mxGeometry width="50" height="50" relative="1" as="geometry">
            <mxPoint x="410" y="490" as="sourcePoint" />
            <mxPoint x="460" y="440" as="targetPoint" />
          </mxGeometry>
        </mxCell>
        <mxCell id="FWyLwm6ZmMoBYNJKN1uE-21" value="" style="endArrow=classic;html=1;exitX=0.5;exitY=1;exitDx=0;exitDy=0;entryX=0.5;entryY=0;entryDx=0;entryDy=0;" edge="1" parent="1" source="FWyLwm6ZmMoBYNJKN1uE-7" target="FWyLwm6ZmMoBYNJKN1uE-8">
          <mxGeometry width="50" height="50" relative="1" as="geometry">
            <mxPoint x="410" y="490" as="sourcePoint" />
            <mxPoint x="460" y="440" as="targetPoint" />
          </mxGeometry>
        </mxCell>
      </root>
    </mxGraphModel>
  </diagram>
</mxfile>
